<mxfile host="app.diagrams.net" modified="2024-04-30T07:52:45.929Z" agent="Mozilla/5.0 (Windows NT 10.0; Win64; x64) AppleWebKit/537.36 (KHTML, like Gecko) Chrome/124.0.0.0 Safari/537.36" etag="UExmF_gQUKUE2vOS0WeY" version="24.3.1" type="github">
  <diagram name="Page-1" id="0783ab3e-0a74-02c8-0abd-f7b4e66b4bec">
    <mxGraphModel dx="1744" dy="971" grid="1" gridSize="10" guides="1" tooltips="1" connect="1" arrows="1" fold="1" page="1" pageScale="1" pageWidth="850" pageHeight="1100" background="none" math="0" shadow="0">
      <root>
        <mxCell id="0" />
        <mxCell id="1" parent="0" />
        <mxCell id="1c1d494c118603dd-1" value="Pool" style="swimlane;html=1;childLayout=stackLayout;startSize=20;rounded=0;shadow=0;comic=0;labelBackgroundColor=none;strokeWidth=1;fontFamily=Verdana;fontSize=12;align=center;" parent="1" vertex="1">
          <mxGeometry x="50" y="40" width="751.13" height="995" as="geometry" />
        </mxCell>
        <mxCell id="1c1d494c118603dd-2" value="第三方" style="swimlane;html=1;startSize=20;" parent="1c1d494c118603dd-1" vertex="1">
          <mxGeometry y="20" width="250" height="975" as="geometry" />
        </mxCell>
        <mxCell id="Fw8UIchJm_SNgGZ7gpzU-35" value="获取进件链接" style="whiteSpace=wrap;html=1;fontFamily=Verdana;rounded=1;shadow=0;comic=0;labelBackgroundColor=none;strokeWidth=1;arcSize=50;" vertex="1" parent="1c1d494c118603dd-2">
          <mxGeometry x="55" y="605" width="120" height="60" as="geometry" />
        </mxCell>
        <mxCell id="1c1d494c118603dd-3" value="小丁后端" style="swimlane;html=1;startSize=20;" parent="1c1d494c118603dd-1" vertex="1">
          <mxGeometry x="250" y="20" width="251.13" height="975" as="geometry" />
        </mxCell>
        <mxCell id="1c1d494c118603dd-11" value="进入统一进件" style="rounded=1;whiteSpace=wrap;html=1;shadow=0;comic=0;labelBackgroundColor=none;strokeWidth=1;fontFamily=Verdana;fontSize=12;align=center;arcSize=50;" parent="1c1d494c118603dd-3" vertex="1">
          <mxGeometry y="450" width="100" height="30" as="geometry" />
        </mxCell>
        <mxCell id="Fw8UIchJm_SNgGZ7gpzU-21" style="edgeStyle=orthogonalEdgeStyle;rounded=0;orthogonalLoop=1;jettySize=auto;html=1;" edge="1" parent="1c1d494c118603dd-3" source="1c1d494c118603dd-12">
          <mxGeometry relative="1" as="geometry">
            <mxPoint x="190" y="460" as="targetPoint" />
          </mxGeometry>
        </mxCell>
        <mxCell id="Fw8UIchJm_SNgGZ7gpzU-22" style="edgeStyle=orthogonalEdgeStyle;rounded=0;orthogonalLoop=1;jettySize=auto;html=1;entryX=0.5;entryY=0;entryDx=0;entryDy=0;" edge="1" parent="1c1d494c118603dd-3" source="1c1d494c118603dd-12" target="1c1d494c118603dd-11">
          <mxGeometry relative="1" as="geometry" />
        </mxCell>
        <mxCell id="1c1d494c118603dd-12" value="" style="whiteSpace=wrap;html=1;rounded=0;shadow=0;comic=0;labelBackgroundColor=none;strokeWidth=1;fillColor=#000000;fontFamily=Verdana;fontSize=12;align=center;rotation=0;" parent="1c1d494c118603dd-3" vertex="1">
          <mxGeometry x="51.5" y="410" width="147" height="10" as="geometry" />
        </mxCell>
        <mxCell id="Fw8UIchJm_SNgGZ7gpzU-2" style="edgeStyle=orthogonalEdgeStyle;rounded=0;orthogonalLoop=1;jettySize=auto;html=1;" edge="1" parent="1c1d494c118603dd-3">
          <mxGeometry relative="1" as="geometry">
            <mxPoint x="310" y="185" as="targetPoint" />
            <mxPoint x="164" y="184.5" as="sourcePoint" />
          </mxGeometry>
        </mxCell>
        <mxCell id="Fw8UIchJm_SNgGZ7gpzU-3" value="拉取进件配置" style="rounded=1;whiteSpace=wrap;html=1;shadow=0;comic=0;labelBackgroundColor=none;strokeWidth=1;fontFamily=Verdana;fontSize=12;align=center;arcSize=50;" vertex="1" parent="1c1d494c118603dd-3">
          <mxGeometry x="63.5" y="170" width="100" height="30" as="geometry" />
        </mxCell>
        <mxCell id="Fw8UIchJm_SNgGZ7gpzU-26" style="edgeStyle=orthogonalEdgeStyle;rounded=0;orthogonalLoop=1;jettySize=auto;html=1;" edge="1" parent="1c1d494c118603dd-3" source="Fw8UIchJm_SNgGZ7gpzU-23">
          <mxGeometry relative="1" as="geometry">
            <mxPoint x="191" y="600" as="targetPoint" />
          </mxGeometry>
        </mxCell>
        <mxCell id="Fw8UIchJm_SNgGZ7gpzU-23" value="行方进件校验" style="rhombus;whiteSpace=wrap;html=1;fontFamily=Verdana;rounded=1;shadow=0;comic=0;labelBackgroundColor=none;strokeWidth=1;arcSize=50;" vertex="1" parent="1c1d494c118603dd-3">
          <mxGeometry x="151" y="454" width="80" height="80" as="geometry" />
        </mxCell>
        <mxCell id="Fw8UIchJm_SNgGZ7gpzU-30" value="" style="edgeStyle=orthogonalEdgeStyle;rounded=0;orthogonalLoop=1;jettySize=auto;html=1;" edge="1" parent="1c1d494c118603dd-3" source="Fw8UIchJm_SNgGZ7gpzU-27" target="Fw8UIchJm_SNgGZ7gpzU-29">
          <mxGeometry relative="1" as="geometry" />
        </mxCell>
        <mxCell id="Fw8UIchJm_SNgGZ7gpzU-32" value="" style="edgeStyle=orthogonalEdgeStyle;rounded=0;orthogonalLoop=1;jettySize=auto;html=1;" edge="1" parent="1c1d494c118603dd-3" source="Fw8UIchJm_SNgGZ7gpzU-27" target="Fw8UIchJm_SNgGZ7gpzU-31">
          <mxGeometry relative="1" as="geometry" />
        </mxCell>
        <mxCell id="Fw8UIchJm_SNgGZ7gpzU-27" value="是否是第一次进件" style="rhombus;whiteSpace=wrap;html=1;fontFamily=Verdana;rounded=1;shadow=0;comic=0;labelBackgroundColor=none;strokeWidth=1;arcSize=50;" vertex="1" parent="1c1d494c118603dd-3">
          <mxGeometry x="146.5" y="590" width="89" height="90" as="geometry" />
        </mxCell>
        <mxCell id="Fw8UIchJm_SNgGZ7gpzU-34" value="" style="edgeStyle=orthogonalEdgeStyle;rounded=0;orthogonalLoop=1;jettySize=auto;html=1;" edge="1" parent="1c1d494c118603dd-3" source="Fw8UIchJm_SNgGZ7gpzU-29" target="Fw8UIchJm_SNgGZ7gpzU-33">
          <mxGeometry relative="1" as="geometry" />
        </mxCell>
        <mxCell id="Fw8UIchJm_SNgGZ7gpzU-29" value="设置新的id" style="whiteSpace=wrap;html=1;fontFamily=Verdana;rounded=1;shadow=0;comic=0;labelBackgroundColor=none;strokeWidth=1;arcSize=50;" vertex="1" parent="1c1d494c118603dd-3">
          <mxGeometry x="131" y="700" width="120" height="60" as="geometry" />
        </mxCell>
        <mxCell id="Fw8UIchJm_SNgGZ7gpzU-31" value="获取老id" style="whiteSpace=wrap;html=1;fontFamily=Verdana;rounded=1;shadow=0;comic=0;labelBackgroundColor=none;strokeWidth=1;arcSize=50;" vertex="1" parent="1c1d494c118603dd-3">
          <mxGeometry x="5" y="605" width="120" height="60" as="geometry" />
        </mxCell>
        <mxCell id="Fw8UIchJm_SNgGZ7gpzU-37" style="edgeStyle=orthogonalEdgeStyle;rounded=0;orthogonalLoop=1;jettySize=auto;html=1;" edge="1" parent="1c1d494c118603dd-3" source="Fw8UIchJm_SNgGZ7gpzU-33">
          <mxGeometry relative="1" as="geometry">
            <mxPoint x="-130" y="670" as="targetPoint" />
          </mxGeometry>
        </mxCell>
        <mxCell id="Fw8UIchJm_SNgGZ7gpzU-33" value="新增数据" style="whiteSpace=wrap;html=1;fontFamily=Verdana;rounded=1;shadow=0;comic=0;labelBackgroundColor=none;strokeWidth=1;arcSize=50;" vertex="1" parent="1c1d494c118603dd-3">
          <mxGeometry x="131.13" y="790" width="120" height="60" as="geometry" />
        </mxCell>
        <mxCell id="1c1d494c118603dd-4" value="用户手机前端" style="swimlane;html=1;startSize=20;" parent="1c1d494c118603dd-1" vertex="1">
          <mxGeometry x="501.13" y="20" width="250" height="975" as="geometry" />
        </mxCell>
        <mxCell id="1c1d494c118603dd-27" style="edgeStyle=orthogonalEdgeStyle;rounded=0;html=1;labelBackgroundColor=none;startArrow=none;startFill=0;startSize=5;endArrow=classicThin;endFill=1;endSize=5;jettySize=auto;orthogonalLoop=1;strokeWidth=1;fontFamily=Verdana;fontSize=12" parent="1c1d494c118603dd-4" source="60571a20871a0731-4" target="60571a20871a0731-8" edge="1">
          <mxGeometry relative="1" as="geometry" />
        </mxCell>
        <mxCell id="60571a20871a0731-4" value="" style="ellipse;whiteSpace=wrap;html=1;rounded=0;shadow=0;comic=0;labelBackgroundColor=none;strokeWidth=1;fillColor=#000000;fontFamily=Verdana;fontSize=12;align=center;" parent="1c1d494c118603dd-4" vertex="1">
          <mxGeometry x="80" y="40" width="40" height="40" as="geometry" />
        </mxCell>
        <mxCell id="60571a20871a0731-8" value="打开进件页面" style="rounded=1;whiteSpace=wrap;html=1;shadow=0;comic=0;labelBackgroundColor=none;strokeWidth=1;fontFamily=Verdana;fontSize=12;align=center;arcSize=50;" parent="1c1d494c118603dd-4" vertex="1">
          <mxGeometry x="50" y="110" width="100" height="30" as="geometry" />
        </mxCell>
        <mxCell id="60571a20871a0731-5" value="" style="shape=mxgraph.bpmn.shape;html=1;verticalLabelPosition=bottom;labelBackgroundColor=#ffffff;verticalAlign=top;perimeter=ellipsePerimeter;outline=end;symbol=terminate;rounded=0;shadow=0;comic=0;strokeWidth=1;fontFamily=Verdana;fontSize=12;align=center;" parent="1c1d494c118603dd-4" vertex="1">
          <mxGeometry x="100" y="880" width="40" height="40" as="geometry" />
        </mxCell>
        <mxCell id="Fw8UIchJm_SNgGZ7gpzU-6" style="edgeStyle=orthogonalEdgeStyle;rounded=0;orthogonalLoop=1;jettySize=auto;html=1;exitX=0.5;exitY=1;exitDx=0;exitDy=0;" edge="1" parent="1c1d494c118603dd-4" source="Fw8UIchJm_SNgGZ7gpzU-5">
          <mxGeometry relative="1" as="geometry">
            <mxPoint x="110" y="240" as="targetPoint" />
          </mxGeometry>
        </mxCell>
        <mxCell id="Fw8UIchJm_SNgGZ7gpzU-5" value="渲染进件页面" style="rounded=1;whiteSpace=wrap;html=1;shadow=0;comic=0;labelBackgroundColor=none;strokeWidth=1;fontFamily=Verdana;fontSize=12;align=center;arcSize=50;" vertex="1" parent="1c1d494c118603dd-4">
          <mxGeometry x="60" y="170" width="100" height="30" as="geometry" />
        </mxCell>
        <mxCell id="Fw8UIchJm_SNgGZ7gpzU-9" value="" style="edgeStyle=orthogonalEdgeStyle;rounded=0;orthogonalLoop=1;jettySize=auto;html=1;" edge="1" parent="1c1d494c118603dd-4" source="Fw8UIchJm_SNgGZ7gpzU-7">
          <mxGeometry relative="1" as="geometry">
            <mxPoint x="110" y="290" as="targetPoint" />
          </mxGeometry>
        </mxCell>
        <mxCell id="Fw8UIchJm_SNgGZ7gpzU-7" value="用户填写资料" style="rounded=1;whiteSpace=wrap;html=1;shadow=0;comic=0;labelBackgroundColor=none;strokeWidth=1;fontFamily=Verdana;fontSize=12;align=center;arcSize=50;" vertex="1" parent="1c1d494c118603dd-4">
          <mxGeometry x="60" y="240" width="100" height="30" as="geometry" />
        </mxCell>
        <mxCell id="Fw8UIchJm_SNgGZ7gpzU-14" style="edgeStyle=orthogonalEdgeStyle;rounded=0;orthogonalLoop=1;jettySize=auto;html=1;entryX=1;entryY=0.5;entryDx=0;entryDy=0;exitX=1;exitY=0.5;exitDx=0;exitDy=0;" edge="1" parent="1c1d494c118603dd-4" source="Fw8UIchJm_SNgGZ7gpzU-11" target="Fw8UIchJm_SNgGZ7gpzU-7">
          <mxGeometry relative="1" as="geometry">
            <Array as="points">
              <mxPoint x="210" y="320" />
              <mxPoint x="210" y="255" />
            </Array>
          </mxGeometry>
        </mxCell>
        <mxCell id="Fw8UIchJm_SNgGZ7gpzU-15" value="校验失败" style="edgeLabel;html=1;align=center;verticalAlign=middle;resizable=0;points=[];" vertex="1" connectable="0" parent="Fw8UIchJm_SNgGZ7gpzU-14">
          <mxGeometry x="0.1228" y="-2" relative="1" as="geometry">
            <mxPoint as="offset" />
          </mxGeometry>
        </mxCell>
        <mxCell id="Fw8UIchJm_SNgGZ7gpzU-11" value="前端校验" style="rhombus;whiteSpace=wrap;html=1;fontFamily=Verdana;rounded=1;shadow=0;comic=0;labelBackgroundColor=none;strokeWidth=1;arcSize=50;" vertex="1" parent="1c1d494c118603dd-4">
          <mxGeometry x="70" y="280" width="80" height="80" as="geometry" />
        </mxCell>
        <mxCell id="Fw8UIchJm_SNgGZ7gpzU-4" style="edgeStyle=orthogonalEdgeStyle;rounded=0;orthogonalLoop=1;jettySize=auto;html=1;entryX=0.5;entryY=0;entryDx=0;entryDy=0;" edge="1" parent="1c1d494c118603dd-1" source="60571a20871a0731-8" target="Fw8UIchJm_SNgGZ7gpzU-3">
          <mxGeometry relative="1" as="geometry" />
        </mxCell>
        <mxCell id="Fw8UIchJm_SNgGZ7gpzU-17" style="edgeStyle=orthogonalEdgeStyle;rounded=0;orthogonalLoop=1;jettySize=auto;html=1;entryX=0.5;entryY=0;entryDx=0;entryDy=0;" edge="1" parent="1c1d494c118603dd-1" source="Fw8UIchJm_SNgGZ7gpzU-11" target="1c1d494c118603dd-12">
          <mxGeometry relative="1" as="geometry" />
        </mxCell>
        <mxCell id="Fw8UIchJm_SNgGZ7gpzU-18" value="校验成功" style="edgeLabel;html=1;align=center;verticalAlign=middle;resizable=0;points=[];" vertex="1" connectable="0" parent="Fw8UIchJm_SNgGZ7gpzU-17">
          <mxGeometry x="-0.3772" y="2" relative="1" as="geometry">
            <mxPoint x="-8" y="-2" as="offset" />
          </mxGeometry>
        </mxCell>
        <mxCell id="Fw8UIchJm_SNgGZ7gpzU-24" style="edgeStyle=orthogonalEdgeStyle;rounded=0;orthogonalLoop=1;jettySize=auto;html=1;exitX=1;exitY=0.5;exitDx=0;exitDy=0;entryX=1;entryY=0.25;entryDx=0;entryDy=0;" edge="1" parent="1c1d494c118603dd-1" source="Fw8UIchJm_SNgGZ7gpzU-23" target="Fw8UIchJm_SNgGZ7gpzU-7">
          <mxGeometry relative="1" as="geometry">
            <Array as="points">
              <mxPoint x="680" y="514" />
              <mxPoint x="680" y="268" />
            </Array>
          </mxGeometry>
        </mxCell>
        <mxCell id="Fw8UIchJm_SNgGZ7gpzU-25" value="失败，有在途订单" style="edgeLabel;html=1;align=center;verticalAlign=middle;resizable=0;points=[];" vertex="1" connectable="0" parent="Fw8UIchJm_SNgGZ7gpzU-24">
          <mxGeometry x="-0.5116" y="-2" relative="1" as="geometry">
            <mxPoint as="offset" />
          </mxGeometry>
        </mxCell>
        <mxCell id="Fw8UIchJm_SNgGZ7gpzU-36" value="" style="edgeStyle=orthogonalEdgeStyle;rounded=0;orthogonalLoop=1;jettySize=auto;html=1;" edge="1" parent="1c1d494c118603dd-1" source="Fw8UIchJm_SNgGZ7gpzU-31" target="Fw8UIchJm_SNgGZ7gpzU-35">
          <mxGeometry relative="1" as="geometry" />
        </mxCell>
        <mxCell id="Fw8UIchJm_SNgGZ7gpzU-38" style="edgeStyle=orthogonalEdgeStyle;rounded=0;orthogonalLoop=1;jettySize=auto;html=1;entryX=0;entryY=0.5;entryDx=0;entryDy=0;" edge="1" parent="1c1d494c118603dd-1" source="Fw8UIchJm_SNgGZ7gpzU-35" target="60571a20871a0731-5">
          <mxGeometry relative="1" as="geometry">
            <Array as="points">
              <mxPoint x="20" y="655" />
              <mxPoint x="20" y="920" />
            </Array>
          </mxGeometry>
        </mxCell>
        <mxCell id="Fw8UIchJm_SNgGZ7gpzU-39" value="成功获取进件链接" style="edgeLabel;html=1;align=center;verticalAlign=middle;resizable=0;points=[];" vertex="1" connectable="0" parent="Fw8UIchJm_SNgGZ7gpzU-38">
          <mxGeometry x="0.1568" y="-2" relative="1" as="geometry">
            <mxPoint as="offset" />
          </mxGeometry>
        </mxCell>
      </root>
    </mxGraphModel>
  </diagram>
</mxfile>
